<svg version="1.2" xmlns="http://www.w3.org/2000/svg" viewBox="0 0 474 432" width="474" height="432">
	<title>bookshelf</title>
	<style>
		.s0 { fill: #000000 } 
	</style>
	<g>
		<path class="s0" d="m146 0v430h78v-430zm-144 48v190h46v-190zm158 23h18v320h-18zm128.7 7.7l-45.3 8.1 61.9 344.5 45.3-8.1zm-222.8 17.3v270h62v-270zm281.5 28.7l-27.6 11.8 5.5 12.8 27.6-11.7zm12.6 29.4l-27.6 11.8 5.5 12.8 27.6-11.7c0 0-5.5-12.9-5.5-12.9zm12.5 29.4l-27.6 11.8 99.7 233.6 27.6-11.8c0 0-99.7-233.6-99.7-233.6zm-370.6 72.5v30h46v-30zm190 7h18v128h-18zm-190 41v126h46v-126zm64 80v46h62v-46z"/>
	</g>
</svg>